<svg xmlns="http://www.w3.org/2000/svg" width="40" height="40" viewBox="0 0 40 40">
    <defs>
        <linearGradient id="1eql3r1lta" x1="78.122%" x2="14.868%" y1="11.571%" y2="87.963%">
            <stop offset="0%" stop-color="#F78361"/>
            <stop offset="100%" stop-color="#F54B64"/>
        </linearGradient>
    </defs>
    <g fill="none" fill-rule="evenodd">
        <circle cx="19.6" cy="19.6" r="19.6" fill="url(#1eql3r1lta)"/>
        <path fill="#FFF" fill-rule="nonzero" d="M20.725 11.9c.93 0 1.725.339 2.385 1.017.66.677.99 1.494.99 2.448v1.985l4.723-4.836c.14-.153.316-.229.527-.229.094 0 .191.02.293.06.305.137.457.373.457.71v13.09c0 .337-.152.573-.457.71-.102.04-.2.06-.293.06-.21 0-.387-.076-.527-.229L24.1 21.838v1.997c0 .954-.33 1.77-.99 2.448-.66.678-1.455 1.017-2.385 1.017h-8.25c-.93 0-1.725-.339-2.385-1.017-.66-.677-.99-1.494-.99-2.448v-8.47c0-.954.33-1.77.99-2.448.66-.678 1.455-1.017 2.385-1.017h8.25zM17.5 14.7h-4.9c-.387 0-.7.313-.7.7 0 .387.313.7.7.7h4.9c.387 0 .7-.313.7-.7 0-.387-.313-.7-.7-.7zm2.8 0c-.387 0-.7.313-.7.7 0 .387.313.7.7.7.387 0 .7-.313.7-.7 0-.387-.313-.7-.7-.7z"/>
    </g>
</svg>
