<svg xmlns="http://www.w3.org/2000/svg" width="22" height="22" viewBox="0 0 22 22">
    <defs>
        <linearGradient id="cma9n4lzba" x1="93.636%" x2="10.269%" y1="11.722%" y2="88.278%">
            <stop offset="0%" stop-color="#F78361"/>
            <stop offset="100%" stop-color="#F54B64"/>
        </linearGradient>
        <linearGradient id="z9udqa6wyb" x1="93.636%" x2="10.269%" y1="20.087%" y2="79.913%">
            <stop offset="0%" stop-color="#F78361"/>
            <stop offset="100%" stop-color="#F54B64"/>
        </linearGradient>
    </defs>
    <g fill="none">
        <path fill="url(#cma9n4lzba)" d="M20.288 9.22c-.116-5.207-4.43-9.333-9.636-9.218C5.446.118 1.32 4.432 1.435 9.64c0 .412.027.824.08 1.233-.36.168-.695.384-.998.641-.33.248-.518.64-.504 1.053.068.734.906 1.258 2.559 1.565 1.73 3.186 5.133 5.099 8.755 4.92 3.621-.18 6.82-2.418 8.227-5.76.125-.293.234-.592.327-.897 1.35-.579 1.98-1.2 1.913-1.883-.05-.541-.545-.969-1.506-1.292zM1.192 12.452c0-.038.071-.172.42-.357.054.23.124.456.21.676-.492-.122-.622-.26-.63-.307v-.012zm9.714 5.2c-2.512-.053-4.848-1.299-6.291-3.355.788.08 1.95.185 2.898.185 1.178 0 2.353.02 3.661-.1 2.22-.183 4.416-.585 6.556-1.2-1.177 2.722-3.859 4.484-6.824 4.483v-.012zm7.658-6.416c-.199.125-.417.217-.645.272-2.168.677-4.403 1.119-6.665 1.317-2.151.256-4.324.276-6.48.059-.088 0-.96-.18-1.044-.189-.553-.957-.843-2.044-.84-3.15 0-4.408 3.574-7.981 7.982-7.981s7.982 3.573 7.982 7.981c.002.581-.095 1.158-.285 1.707l-.005-.016zm1.707-.156c.042-.24.07-.482.084-.725.32.13.42.243.42.285 0 .042-.097.226-.504.453v-.013z" transform="translate(0 1)"/>
        <path fill="url(#z9udqa6wyb)" d="M5.198 7.655c.113.107.27.154.423.128.154-.027.286-.124.357-.263.95-1.721 2.663-2.888 4.613-3.145.317-.093.523-.398.489-.727-.034-.328-.298-.586-.627-.611-1.118.118-2.188.52-3.108 1.166-.942.662-1.729 1.52-2.307 2.516-.174.31-.115.697.143.94l.017-.004z" transform="translate(0 1)"/>
    </g>
</svg>
