<svg xmlns="http://www.w3.org/2000/svg" xmlns:xlink="http://www.w3.org/1999/xlink" width="22" height="22" viewBox="0 0 22 22">
    <defs>
        <linearGradient id="95667er7gb" x1="81.116%" x2="-1.625%" y1=".711%" y2="95.088%">
            <stop offset=".05%" stop-color="#F78361"/>
            <stop offset="100%" stop-color="#F54B64"/>
        </linearGradient>
        <path id="0liy0b1xea" d="M10.194.373c-.736-.497-1.652-.497-2.388 0L1.14 4.882C.433 5.36 0 6.224 0 7.157V17.35C0 18.814 1.045 20 2.332 20h3.986v-7.106c0-.878.71-1.59 1.585-1.59h2.194c.875 0 1.585.712 1.585 1.59V20h3.985C16.955 20 18 18.814 18 17.351V7.157c0-.933-.433-1.797-1.139-2.275L10.194.373z"/>
    </defs>
    <g fill="none" fill-rule="evenodd" transform="translate(2 1)">
        <path stroke="url(#95667er7gb)" stroke-width="1.5" d="M9 .75c.268 0 .536.083.774.244h0l6.667 4.509c.513.348.809.982.809 1.654h0V17.35c0 .537-.186 1.025-.496 1.378-.278.315-.66.521-1.087.521h0-3.235v-6.356c0-.646-.261-1.23-.683-1.654-.423-.424-1.007-.686-1.652-.686h0-2.194c-.645 0-1.229.262-1.652.686-.422.423-.683 1.008-.683 1.654h0v6.356H2.332c-.427 0-.808-.206-1.086-.521-.31-.353-.496-.841-.496-1.378h0V7.157c0-.671.296-1.306.81-1.654h0L8.227.994C8.465.834 8.732.75 9 .75z"/>
    </g>
</svg>
