<svg xmlns="http://www.w3.org/2000/svg" width="22" height="22" viewBox="0 0 22 22">
    <path fill="none" fill-rule="evenodd" stroke="#FFF" stroke-width="1.5" d="M11.5 13.25c2.394 0 4.593.673 6.207 1.716 1.514.978 2.543 2.285 2.543 3.673 0 .38-.085.69-.266.938-.209.286-.529.483-.919.637-1.253.497-3.152.536-5.29.536-.372 0-.754-.002-1.143-.004-.408-.002-.823-.004-1.245-.004-.423 0-.838.002-1.246.004-.389.002-.77.004-1.143.004-2.118 0-3.935-.037-5.126-.524-.368-.15-.67-.344-.865-.625-.176-.253-.257-.572-.257-.962 0-1.388 1.029-2.695 2.542-3.673 1.615-1.043 3.814-1.716 6.208-1.716h0zm0-12c1.312 0 2.5.532 3.359 1.391.86.86 1.391 2.047 1.391 3.359 0 1.312-.532 2.5-1.391 3.359-.86.86-2.047 1.391-3.359 1.391-1.312 0-2.5-.532-3.359-1.391C7.281 8.499 6.75 7.312 6.75 6c0-1.312.531-2.5 1.391-3.359.86-.86 2.047-1.391 3.359-1.391h0z" opacity=".6"/>
</svg>
