<svg xmlns="http://www.w3.org/2000/svg" width="22" height="22" viewBox="0 0 22 22">
    <g fill="#FFF">
        <path d="M18.704 2.5H3.246c-1.045 0-1.896.85-1.896 1.896V17.58c0 1.046.85 1.896 1.896 1.896h15.458c1.045 0 1.896-.85 1.896-1.896V4.396c0-1.045-.85-1.896-1.896-1.896zm0 15.712H3.246c-.348 0-.632-.283-.632-.632V4.396c0-.348.284-.632.632-.632h1.732v1.173c0 .523.424.947.948.947.523 0 .947-.424.947-.947V3.764h8.203v1.173c0 .523.424.947.948.947.523 0 .948-.424.948-.947V3.764h1.731c.348 0 .632.284.632.632V17.58c0 .348-.283.632-.631.632z" opacity=".6"/>
        <path d="M10.456 11.328L8.618 9.491c-.37-.37-.97-.37-1.34 0-.37.37-.37.97 0 1.34l2.508 2.508c.186.185.429.277.67.277.244 0 .486-.092.67-.277l3.721-3.72c.37-.371.37-.971 0-1.341s-.97-.37-1.34 0l-3.05 3.05z"/>
    </g>
</svg>
